<?xml version="1.0" encoding="utf-8"?>
<!-- Generator: Adobe Illustrator 16.0.0, SVG Export Plug-In . SVG Version: 6.00 Build 0)  -->
<!DOCTYPE svg PUBLIC "-//W3C//DTD SVG 1.1//EN" "http://www.w3.org/Graphics/SVG/1.1/DTD/svg11.dtd">
<svg version="1.1" id="Layer_1" xmlns="http://www.w3.org/2000/svg" xmlns:xlink="http://www.w3.org/1999/xlink" x="0px" y="0px"
	 width="256px" height="256px" viewBox="0 0 256 256" enable-background="new 0 0 256 256" xml:space="preserve">
<g>
	<path fill-rule="evenodd" clip-rule="evenodd" fill="#CBEAEF" d="M252.481,127.936c0.556,67.592-54.919,125.914-126.333,124.901
		C58.053,251.872,3.327,195.996,3.515,127.209C3.702,58.841,59.684,3.13,128.449,3.151
		C196.905,3.168,252.481,59.079,252.481,127.936z"/>
	<path fill-rule="evenodd" clip-rule="evenodd" fill="#1E81C4" d="M77.562,61.803c-35.545,27.833-41.816,79.242-13.977,114.802
		c35.714,41.975,99.65,44.58,99.65,44.58l1.217-21.749c4.858-2.414,9.524-5.348,13.976-8.817
		c35.545-27.847,41.82-79.276,13.961-114.842C164.56,40.202,113.166,33.959,77.562,61.803z"/>
	<g>
		<path fill-rule="evenodd" clip-rule="evenodd" fill="#FFFFFF" d="M135.145,121.225c-0.277-0.259-0.518-0.496-0.747-0.754
			c-0.279-0.635-0.616-1.248-0.753-1.907c-0.258-1.444,0.349-2.641,1.351-3.651c6.222-6.252,12.478-12.496,18.703-18.736
			c0.123-0.114,0.232-0.22,0.349-0.349c-0.027-0.023-0.044-0.07-0.076-0.124c-0.15,0.018-0.337,0.053-0.51,0.053
			c-4.598,0-9.22,0-13.814,0c-0.303,0-0.616-0.009-0.944-0.053c-1.551-0.164-2.657-0.972-3.271-2.371
			c-0.604-1.372-0.436-2.71,0.42-3.954c0.864-1.225,2.101-1.699,3.572-1.685c7.749,0,15.493,0.012,23.217-0.014
			c1.324,0,2.523,0.043,3.662,0.764c0.275,0.273,0.572,0.571,0.889,0.871c0.428,0.801,0.74,1.612,0.74,2.518
			c0,8.185,0,16.341,0,24.511c0,1.727-0.77,3.013-2.349,3.795c-1.571,0.772-3.69,0.29-4.777-1.063
			c-0.671-0.865-0.97-1.808-0.97-2.872c0-4.701,0-9.404,0-14.093c0-0.167,0-0.328,0-0.606c-0.199,0.179-0.31,0.299-0.449,0.431
			c-6.218,6.218-12.464,12.46-18.679,18.679c-1.018,1.039-2.215,1.61-3.655,1.334C136.397,121.826,135.766,121.486,135.145,121.225z
			"/>
	</g>
	<g>
		<path fill-rule="evenodd" clip-rule="evenodd" fill="none" stroke="#FFFFFF" stroke-width="2.5512" stroke-miterlimit="10" d="
			M89.293,163.144c-0.232-1.43,0.313-2.638,1.325-3.648c6.265-6.25,12.49-12.476,18.732-18.741c0.12-0.118-0.091-0.396-0.27-0.396
			c-4.614,0-9.194,0-13.788,0c-0.32,0-0.613-0.003-0.921-0.047c-1.573-0.17-2.675-0.979-3.284-2.396
			c-0.584-1.349-0.456-2.702,0.416-3.921c0.861-1.243,2.109-1.715,3.572-1.715c7.743,0,15.509,0.008,23.218-0.009
			c1.284,0,2.539,0.05,3.661,0.754c0.278,0.311,0.566,0.598,0.849,0.876c0.452,0.785,0.76,1.629,0.76,2.542
			c0,8.172,0,16.331,0,24.495c0,1.729-0.779,3.021-2.336,3.787c-1.57,0.771-3.687,0.292-4.774-1.021
			c-0.691-0.873-0.952-1.852-0.952-2.924c0-4.696,0-9.379,0-14.082c0-0.164-0.336-0.302-0.437-0.19
			c-6.242,6.26-12.487,12.481-18.716,18.701c-1.01,1.008-2.197,1.611-3.647,1.345C90.274,166.116,89.439,163.801,89.293,163.144z"/>
	</g>
	<g>
		<path fill-rule="evenodd" clip-rule="evenodd" fill="#FFFFFF" d="M134.418,135.429c0.251-0.249,0.508-0.495,0.756-0.773
			c0.602-0.229,1.223-0.609,1.896-0.718c1.441-0.261,2.637,0.308,3.637,1.339c6.266,6.236,12.51,12.469,18.731,18.703
			c0.11,0.126,0.239,0.255,0.358,0.357c0.05-0.029,0.059-0.05,0.109-0.082c-0.006-0.167-0.051-0.331-0.051-0.516
			c0-4.612,0-9.208,0-13.824c0-0.302,0.03-0.609,0.051-0.917c0.17-1.55,0.984-2.653,2.423-3.288c1.32-0.58,2.656-0.434,3.91,0.425
			c1.234,0.865,1.693,2.128,1.693,3.572c0,7.754,0,15.486,0,23.22c0.03,1.28-0.042,2.523-0.74,3.654
			c-0.297,0.287-0.566,0.577-0.871,0.876c-0.799,0.448-1.624,0.748-2.529,0.748c-8.171,0-16.353,0-24.501,0
			c-1.73,0-3.043-0.769-3.807-2.354c-0.778-1.536-0.276-3.672,1.045-4.756c0.876-0.686,1.866-0.977,2.896-0.977
			c4.687,0.011,9.419,0.011,14.084,0c0.179,0,0.364-0.009,0.621-0.009c-0.199-0.187-0.308-0.296-0.431-0.436
			c-6.232-6.227-12.46-12.464-18.703-18.679c-0.997-1.012-1.597-2.216-1.325-3.658C133.782,136.678,134.152,136.065,134.418,135.429
			z"/>
	</g>
	<g>
		<path fill-rule="evenodd" clip-rule="evenodd" fill="#FFFFFF" d="M121.049,120.565c-0.249,0.251-0.515,0.505-0.747,0.745
			c-0.654,0.263-1.26,0.639-1.902,0.741c-1.459,0.267-2.659-0.316-3.657-1.328c-6.258-6.239-12.512-12.493-18.74-18.709
			c-0.107-0.131-0.23-0.255-0.359-0.343c-0.018,0.012-0.063,0.012-0.092,0.059c0,0.173,0.029,0.337,0.029,0.518
			c0,4.613,0,9.214,0,13.82c0,0.314-0.029,0.619-0.037,0.932c-0.176,1.545-0.973,2.649-2.397,3.283
			c-1.343,0.588-2.714,0.439-3.936-0.431c-1.244-0.855-1.69-2.121-1.69-3.57c0-7.763,0-15.485,0-23.239
			c-0.024-1.254,0.012-2.517,0.715-3.64c0.311-0.276,0.606-0.58,0.912-0.882c0.779-0.427,1.585-0.735,2.534-0.735
			c8.165,0,16.345,0,24.48,0.009c1.738,0,3.022,0.776,3.803,2.336c0.754,1.562,0.267,3.689-1.072,4.774
			c-0.835,0.674-1.793,0.972-2.864,0.972c-4.703,0-9.413,0-14.086,0c-0.182,0-0.349,0-0.624,0.009
			c0.19,0.176,0.328,0.316,0.442,0.413c6.219,6.257,12.461,12.481,18.695,18.715c1.014,1.013,1.582,2.216,1.313,3.634
			C121.656,119.332,121.278,119.92,121.049,120.565z"/>
	</g>
</g>
</svg>
